PathFileType	4	(x/y/z)	S10_BK_Cal_T01
DataRate	CameraRate	NumFrames	NumMarkers	Units	OrigDataRate	OrigDataStartFrame	OrigNumFrames
240	240	7	51	mm	240	1501	2400
Frame#	Time	Sternum			R.Acromium			L.Acromium			Top.Head			R.ASIS			L.ASIS			R.PSIS			L.PSIS			R.Great.Tro			L.Great.Tro			R.Iliac.Crest			L.Iliac.Crest			V.Sacral			R.Thigh.Upper.Post			R.Thigh.Lower.Ant			R.Thigh.Lower.Post			R.Thigh.Upper.Ant			R.Knee.Lat			R.Knee.Med			R.Shank.Upper.Post			R.Shank.Lower.Ant			R.Shank.Lower.Post			R.Shank.Upper.Ant			R.Ankle.Lat			R.Ankle.Med			R.Heel.Upper			R.Heel.Med			R.Heel.Lat			R.Toe.Lat			R.Toe.Med			R.Toe.Tip			L.Thigh.Upper.Post			L.Thigh.Lower.Ant			L.Thigh.Lower.Post			L.Thigh.Upper.Ant			L.Knee.Lat			L.Knee.Med			L.Shank.Upper.Post			L.Shank.Lower.Ant			L.Shank.Lower.Post			L.Shank.Upper.Ant			L.Ankle.Lat			L.Ankle.Med			L.Heel.Upper			L.Heel.Med			L.Heel.Lat			L.Toe.Lat			L.Toe.Med			L.Toe.Tip			Cervical.Spine			Back			
		X1	Y1	Z1	X2	Y2	Z2	X3	Y3	Z3	X4	Y4	Z4	X5	Y5	Z5	X6	Y6	Z6	X7	Y7	Z7	X8	Y8	Z8	X9	Y9	Z9	X10	Y10	Z10	X11	Y11	Z11	X12	Y12	Z12	X13	Y13	Z13	X14	Y14	Z14	X15	Y15	Z15	X16	Y16	Z16	X17	Y17	Z17	X18	Y18	Z18	X19	Y19	Z19	X20	Y20	Z20	X21	Y21	Z21	X22	Y22	Z22	X23	Y23	Z23	X24	Y24	Z24	X25	Y25	Z25	X26	Y26	Z26	X27	Y27	Z27	X28	Y28	Z28	X29	Y29	Z29	X30	Y30	Z30	X31	Y31	Z31	X32	Y32	Z32	X33	Y33	Z33	X34	Y34	Z34	X35	Y35	Z35	X36	Y36	Z36	X37	Y37	Z37	X38	Y38	Z38	X39	Y39	Z39	X40	Y40	Z40	X41	Y41	Z41	X42	Y42	Z42	X43	Y43	Z43	X44	Y44	Z44	X45	Y45	Z45	X46	Y46	Z46	X47	Y47	Z47	X48	Y48	Z48	X49	Y49	Z49	X50	Y50	Z50	X51	Y51	Z51	

1501	6.25	860.14	1241.8	310.19	736.85	1403.3	462.54	741.02	1432.1	155.43	735.74	1729.8	333.09	767.7	956.75	421.25	767.2	970.88	189.71	573.33	1025.4	339.32	581.65	1028.9	257.86	686.98	902.96	499.87	692.86	920.64	129.7	695.8	1059.4	465.83	718.97	1061.2	163.4	546.66	1000.5	301.32	742.86	709.15	528.85	820.33	646.63	503.11	762.88	621.41	532.67	800.86	735.66	493.54	797.24	495.88	510.42	798.99	487.48	383.8	678.65	297.57	524.62	725.13	218.34	518.55	659.32	225.58	526.48	750.67	291.1	518.72	645.75	112.32	514.07	669.01	110.64	436.28	582.16	63.986	466.89	595.2	36.607	440.86	582.87	39.777	501.53	748.76	38.749	567.48	789.65	44.334	462.72	842.97	60.985	512.18	712.88	654.43	110.57	808.19	598.55	110.91	744.94	564.44	120.18	783.82	686.33	100.28	801.04	494.97	112.08	830.3	482.27	237.92	693.18	313.12	93.603	731.81	209.13	92.94	674.43	237.85	93.643	751.07	283.88	90.851	665.27	107.79	90.102	685.3	105.87	177.19	592.33	78.248	132.61	604.85	46.424	164.7	596.9	48.55	100.54	770.5	41.156	51.961	804.65	46.661	156.33	856.91	57.352	107.52	664.73	1468.5	319.16	579.82	1264.3	303.97
1502	6.2542	860.11	1241.8	310.22	736.84	1403.3	462.58	741	1432.1	155.47	735.74	1729.9	333.12	767.67	956.76	421.26	767.17	970.9	189.71	573.3	1025.4	339.34	581.62	1028.9	257.88	686.97	902.95	499.88	692.84	920.64	129.7	695.75	1059.4	465.86	718.91	1061.2	163.4	546.63	1000.5	301.34	742.85	709.15	528.85	820.33	646.62	503.11	762.88	621.41	532.67	800.86	735.66	493.54	797.24	495.88	510.42	799	487.48	383.8	678.65	297.57	524.62	725.13	218.34	518.55	659.32	225.58	526.48	750.67	291.1	518.72	645.75	112.32	514.07	669.01	110.64	436.28	582.16	63.986	466.89	595.21	36.606	440.86	582.87	39.776	501.53	748.76	38.75	567.48	789.65	44.334	462.72	842.97	60.985	512.18	712.86	654.44	110.57	808.17	598.55	110.91	744.92	564.44	120.18	783.8	686.34	100.29	801.03	494.97	112.08	830.28	482.27	237.92	693.17	313.11	93.601	731.81	209.13	92.939	674.42	237.85	93.643	751.06	283.89	90.852	665.26	107.79	90.1	685.3	105.87	177.19	592.33	78.246	132.61	604.85	46.423	164.7	596.9	48.546	100.54	770.5	41.162	51.956	804.65	46.659	156.33	856.91	57.354	107.52	664.72	1468.5	319.2	579.8	1264.3	304
1503	6.2583	860.08	1241.8	310.24	736.82	1403.3	462.61	740.99	1432.1	155.5	735.75	1729.9	333.15	767.64	956.77	421.28	767.14	970.92	189.71	573.27	1025.4	339.35	581.59	1028.9	257.89	686.95	902.93	499.89	692.82	920.64	129.71	695.7	1059.3	465.89	718.85	1061.2	163.4	546.6	1000.5	301.36	742.85	709.14	528.85	820.32	646.62	503.11	762.87	621.41	532.67	800.85	735.66	493.54	797.24	495.87	510.41	799	487.48	383.8	678.65	297.57	524.62	725.13	218.34	518.54	659.32	225.58	526.47	750.67	291.1	518.72	645.75	112.32	514.07	669.01	110.64	436.28	582.16	63.984	466.89	595.21	36.605	440.86	582.87	39.775	501.53	748.76	38.75	567.48	789.65	44.334	462.72	842.97	60.986	512.18	712.85	654.44	110.57	808.16	598.56	110.92	744.91	564.45	120.18	783.79	686.35	100.3	801.01	494.97	112.09	830.27	482.28	237.92	693.16	313.11	93.6	731.8	209.13	92.939	674.42	237.85	93.644	751.05	283.89	90.852	665.26	107.79	90.099	685.3	105.87	177.19	592.32	78.244	132.61	604.85	46.421	164.7	596.9	48.542	100.54	770.5	41.168	51.952	804.65	46.656	156.33	856.91	57.356	107.52	664.7	1468.5	319.24	579.78	1264.3	304.04
1504	6.2625	860.04	1241.8	310.27	736.8	1403.2	462.65	740.97	1432.1	155.54	735.75	1729.9	333.18	767.61	956.78	421.29	767.11	970.94	189.71	573.24	1025.4	339.37	581.56	1028.9	257.91	686.94	902.92	499.9	692.8	920.65	129.71	695.65	1059.3	465.92	718.79	1061.2	163.4	546.58	1000.5	301.38	742.85	709.13	528.85	820.32	646.61	503.11	762.87	621.41	532.66	800.85	735.65	493.54	797.25	495.87	510.41	799.01	487.47	383.8	678.65	297.57	524.61	725.13	218.33	518.54	659.32	225.58	526.47	750.67	291.1	518.71	645.75	112.32	514.07	669.01	110.64	436.27	582.16	63.983	466.89	595.21	36.604	440.86	582.87	39.774	501.53	748.76	38.751	567.48	789.65	44.334	462.72	842.97	60.987	512.18	712.84	654.45	110.57	808.15	598.56	110.92	744.9	564.45	120.18	783.78	686.36	100.3	801	494.97	112.09	830.25	482.28	237.92	693.15	313.11	93.6	731.79	209.13	92.938	674.41	237.84	93.645	751.04	283.89	90.853	665.26	107.78	90.097	685.3	105.87	177.19	592.32	78.242	132.6	604.85	46.419	164.7	596.9	48.537	100.54	770.5	41.173	51.948	804.65	46.654	156.33	856.91	57.358	107.52	664.68	1468.5	319.29	579.76	1264.3	304.07
1505	6.2667	860.01	1241.7	310.29	736.78	1403.2	462.68	740.95	1432.1	155.58	735.76	1729.9	333.21	767.58	956.78	421.31	767.08	970.96	189.71	573.22	1025.3	339.38	581.53	1028.9	257.92	686.93	902.91	499.9	692.78	920.65	129.72	695.6	1059.3	465.95	718.73	1061.2	163.41	546.55	1000.5	301.4	742.85	709.13	528.84	820.32	646.61	503.11	762.86	621.4	532.66	800.85	735.65	493.54	797.25	495.87	510.41	799.01	487.47	383.79	678.65	297.57	524.61	725.13	218.33	518.54	659.32	225.57	526.47	750.67	291.1	518.71	645.75	112.32	514.07	669.01	110.63	436.27	582.16	63.982	466.89	595.21	36.602	440.86	582.87	39.773	501.53	748.76	38.751	567.48	789.65	44.334	462.72	842.97	60.987	512.18	712.83	654.45	110.57	808.13	598.57	110.93	744.88	564.46	120.18	783.77	686.37	100.31	800.98	494.98	112.09	830.23	482.29	237.92	693.14	313.11	93.601	731.78	209.14	92.937	674.4	237.84	93.646	751.03	283.89	90.854	665.26	107.78	90.096	685.3	105.87	177.19	592.32	78.239	132.6	604.85	46.417	164.69	596.89	48.532	100.54	770.5	41.177	51.945	804.64	46.653	156.33	856.91	57.361	107.52	664.67	1468.5	319.33	579.73	1264.4	304.1
1506	6.2708	859.97	1241.7	310.32	736.76	1403.2	462.72	740.93	1432.1	155.62	735.76	1729.9	333.23	767.55	956.79	421.32	767.05	970.98	189.71	573.19	1025.3	339.4	581.5	1028.9	257.94	686.92	902.9	499.91	692.77	920.66	129.73	695.55	1059.3	465.99	718.67	1061.2	163.41	546.53	1000.4	301.41	742.84	709.12	528.84	820.32	646.61	503.11	762.86	621.4	532.66	800.85	735.65	493.54	797.25	495.86	510.4	799.01	487.47	383.79	678.64	297.57	524.6	725.13	218.33	518.53	659.32	225.57	526.46	750.67	291.1	518.71	645.75	112.32	514.07	669.01	110.63	436.27	582.16	63.98	466.89	595.21	36.601	440.86	582.87	39.772	501.53	748.76	38.752	567.48	789.65	44.334	462.72	842.97	60.988	512.18	712.82	654.46	110.56	808.12	598.57	110.93	744.87	564.47	120.17	783.76	686.38	100.32	800.97	494.98	112.09	830.21	482.29	237.93	693.12	313.11	93.602	731.78	209.14	92.936	674.39	237.84	93.648	751.02	283.9	90.854	665.25	107.78	90.094	685.3	105.87	177.19	592.32	78.237	132.6	604.85	46.415	164.69	596.89	48.527	100.54	770.5	41.179	51.943	804.64	46.652	156.33	856.91	57.363	107.52	664.65	1468.5	319.37	579.71	1264.4	304.14
1507	6.275	859.93	1241.7	310.35	736.74	1403.2	462.76	740.91	1432.1	155.65	735.75	1729.9	333.26	767.52	956.8	421.34	767.03	971.01	189.72	573.17	1025.3	339.41	581.47	1028.8	257.95	686.91	902.89	499.92	692.75	920.67	129.73	695.5	1059.3	466.02	718.61	1061.2	163.41	546.5	1000.4	301.43	742.84	709.12	528.84	820.32	646.6	503.11	762.86	621.4	532.65	800.84	735.65	493.53	797.25	495.86	510.4	799.02	487.46	383.78	678.64	297.57	524.6	725.12	218.33	518.53	659.32	225.57	526.46	750.67	291.09	518.7	645.75	112.32	514.07	669	110.63	436.27	582.15	63.978	466.89	595.2	36.6	440.86	582.87	39.77	501.53	748.76	38.752	567.48	789.65	44.334	462.72	842.97	60.99	512.18	712.81	654.47	110.56	808.11	598.58	110.94	744.86	564.48	120.17	783.76	686.39	100.32	800.95	494.98	112.1	830.18	482.3	237.93	693.11	313.11	93.603	731.77	209.14	92.935	674.37	237.84	93.65	751.01	283.9	90.855	665.25	107.78	90.093	685.3	105.87	177.2	592.32	78.235	132.6	604.84	46.413	164.69	596.89	48.521	100.54	770.5	41.18	51.942	804.64	46.652	156.33	856.91	57.366	107.52	664.63	1468.5	319.41	579.69	1264.4	304.17
